<svg xmlns="http://www.w3.org/2000/svg" width="24" height="24" viewBox="0 0 24 24" fill="none">
<path d="M5.68359 11.75H8.44675M15.8152 11.75H18.5783" stroke="currentColor" stroke-width="2" stroke-linecap="round" stroke-linejoin="round" />
<path d="M3.84211 18.1974V20.5H7.52632V18.6579V17.7368M7.52632 17.7368H3.38158M7.52632 17.7368H16.2763M16.2763 17.7368V20.5H19.9605V17.7368M16.2763 17.7368H19.9605M19.9605 17.7368H20.8816V8.52632M20.8816 8.52632H22.2632V6.22368H19.7303M20.8816 8.52632H3.38158M20.8816 8.52632L19.7303 6.22368M19.7303 6.22368L18.1184 3H6.24368L4.57412 6.22368M3.38158 8.52632L4.57412 6.22368M3.38158 8.52632V12.6711M3.38158 8.52632H2V6.22368H4.57412" stroke="currentColor" stroke-width="2" stroke-linecap="round" stroke-linejoin="round" />
</svg>