<svg xmlns="http://www.w3.org/2000/svg" width="24" height="24" viewBox="0 0 24 24" fill="none">
<path d="M16.4011 8.97239C16.7485 7.91684 16.7218 5.81375 13.8357 5.84582C10.9496 5.87789 9.82727 5.85918 9.62684 5.84582C9.62684 5.84582 6.50027 5.84582 6.50027 8.97239C6.50027 12.099 9.62684 12.099 9.62684 12.099H13.8357C13.8357 12.099 16.8213 12.1791 16.8213 15.3458C16.8213 18.5124 13.8357 18.6113 13.8357 18.6113H9.226C8.2239 18.5784 6.2758 17.9432 6.50027 15.6665" stroke="currentColor" stroke-width="2" stroke-linecap="round" stroke-linejoin="round" />
<path d="M11 2C11 2 11.099 2.39324 11.2419 3.04219" stroke="currentColor" stroke-width="2" stroke-linecap="round" stroke-linejoin="round" />
<path d="M11.2018 18C11.5575 16.5638 11.946 14.6696 11.9944 13.0943C12.0658 10.7706 11.4387 7.77922 11 6" stroke="currentColor" stroke-width="2" stroke-linecap="round" stroke-linejoin="round" />
<path d="M10.316 21C10.1343 21.7839 10 22.2827 10 22.2827" stroke="currentColor" stroke-width="2" stroke-linecap="round" stroke-linejoin="round" />
</svg>