<svg xmlns="http://www.w3.org/2000/svg" width="24" height="24" viewBox="0 0 24 24" fill="none">
<path d="M8.1469 18C8.1469 18.5523 8.59462 19 9.1469 19C9.69918 19 10.1469 18.5523 10.1469 18H9.1469H8.1469ZM8.1469 17.2143C8.1469 17.7666 8.59462 18.2143 9.1469 18.2143C9.69918 18.2143 10.1469 17.7666 10.1469 17.2143H9.1469H8.1469ZM8.10219 14.0384C8.10219 14.5906 8.5499 15.0384 9.10219 15.0384C9.65447 15.0384 10.1022 14.5906 10.1022 14.0384H9.10219H8.10219ZM9.86254 11.8559L9.15887 11.1454H9.15887L9.86254 11.8559ZM6 9.13907C6 9.69135 6.44772 10.1391 7 10.1391C7.55228 10.1391 8 9.69135 8 9.13907H7H6ZM10.1469 17C10.1469 16.4477 9.69918 16 9.1469 16C8.59462 16 8.1469 16.4477 8.1469 17H9.1469H10.1469ZM9.10219 14.0384H10.1022C10.1022 13.6742 10.0747 13.54 10.1245 13.3011C10.1619 13.1217 10.2554 12.8742 10.5662 12.5665L9.86254 11.8559L9.15887 11.1454C8.5714 11.7272 8.28477 12.326 8.16657 12.8929C8.06076 13.4004 8.10219 13.9126 8.10219 14.0384H9.10219ZM9.86254 11.8559L10.5662 12.5665C10.7301 12.4042 10.9106 12.2443 11.116 12.0622C11.3125 11.8879 11.5346 11.6907 11.7384 11.4842C12.124 11.0936 12.6084 10.5136 12.6908 9.73415L11.6964 9.62903L10.7019 9.5239C10.6949 9.59069 10.6368 9.75326 10.3151 10.0791C10.1653 10.2309 9.99249 10.3854 9.78889 10.5659C9.59418 10.7386 9.36946 10.9368 9.15887 11.1454L9.86254 11.8559ZM11.6964 9.62903L12.6908 9.73415C12.7462 9.21078 12.7325 8.34082 12.3199 7.55132C11.8608 6.67295 10.9757 6.03157 9.61631 6.00149L9.59419 7.00125L9.57206 8.001C9.9289 8.0089 10.1389 8.08914 10.263 8.16495C10.3861 8.24016 10.4768 8.34281 10.5473 8.47768C10.705 8.77937 10.736 9.20104 10.7019 9.5239L11.6964 9.62903ZM9.59419 7.00125L9.61631 6.00149C8.41378 5.97488 7.464 6.30939 6.82221 6.97545C6.19495 7.62644 6 8.45182 6 9.13907H7H8C8 8.80192 8.09578 8.53613 8.26243 8.36317C8.41456 8.20528 8.76188 7.98307 9.57206 8.001L9.59419 7.00125ZM9.1469 18H10.1469V17H9.1469H8.1469V18H9.1469ZM9.1469 17H8.1469V17.2143H9.1469H10.1469V17H9.1469Z" fill="currentColor" />
<path d="M11.6141 22H2V2H15.7155C14.8262 7.47593 14.6703 18.785 21.1621 20.2139" stroke="currentColor" stroke-width="2" stroke-linecap="round" stroke-linejoin="round" />
</svg>