<svg xmlns="http://www.w3.org/2000/svg" width="24" height="24" viewBox="0 0 24 24" fill="none">
<path d="M4.81102 17.5478L5.78308 17.7825L5.9256 17.1923L5.46774 16.7936L4.81102 17.5478ZM11.8065 19.8584C11.2542 19.8584 10.8065 20.3062 10.8065 20.8584C10.8065 21.4107 11.2542 21.8584 11.8065 21.8584V20.8584V19.8584ZM2 19.9472V18.9472C1.56209 18.9472 1.17512 19.2322 1.0451 19.6503C0.915074 20.0685 1.07224 20.5226 1.43294 20.7709L2 19.9472ZM6.56688 21.8194C7.09762 21.6667 7.40406 21.1126 7.25132 20.5819C7.09858 20.0511 6.54451 19.7447 6.01377 19.8974L6.29032 20.8584L6.56688 21.8194ZM4.81102 17.5478L5.46774 16.7936C4.96149 16.3528 4.48867 15.5844 4.14259 14.5883C3.80146 13.6064 3.6129 12.4862 3.6129 11.4292H2.6129H1.6129C1.6129 12.7072 1.8381 14.0494 2.25337 15.2447C2.66369 16.4257 3.28992 17.5492 4.1543 18.3019L4.81102 17.5478ZM2.6129 11.4292H3.6129C3.6129 6.74988 7.30499 3 11.8065 3V2V1C6.153 1 1.6129 5.69333 1.6129 11.4292H2.6129ZM11.8065 2V3C16.3079 3 20 6.74988 20 11.4292H21H22C22 5.69333 17.4599 1 11.8065 1V2ZM21 11.4292H20C20 16.1086 16.3079 19.8584 11.8065 19.8584V20.8584V21.8584C17.4599 21.8584 22 17.1651 22 11.4292H21ZM4.81102 17.5478L3.83896 17.313C3.8092 17.4362 3.79075 17.5822 3.78045 17.6571C3.76684 17.7561 3.75418 17.8446 3.7359 17.9362C3.69939 18.1192 3.64733 18.2746 3.56689 18.4033C3.45653 18.5797 3.15119 18.9472 2 18.9472V19.9472V20.9472C3.65983 20.9472 4.7001 20.3631 5.26254 19.4638C5.51851 19.0546 5.63465 18.6412 5.69721 18.3277C5.72847 18.1711 5.74806 18.0295 5.76182 17.9295C5.76921 17.8756 5.77404 17.8403 5.77877 17.8097C5.78365 17.7783 5.78524 17.7735 5.78308 17.7825L4.81102 17.5478ZM2 19.9472C1.43294 20.7709 1.4332 20.7711 1.43347 20.7713C1.43357 20.7713 1.43385 20.7715 1.43406 20.7717C1.43447 20.772 1.43491 20.7723 1.43538 20.7726C1.43634 20.7732 1.43743 20.774 1.43865 20.7748C1.44111 20.7765 1.44411 20.7785 1.44764 20.7809C1.45472 20.7857 1.46395 20.7918 1.47527 20.7993C1.4979 20.8142 1.52891 20.8343 1.56774 20.8586C1.64532 20.9072 1.75461 20.973 1.89102 21.0487C2.16254 21.1994 2.54834 21.3926 3.01056 21.5654C3.91248 21.9024 5.22494 22.2056 6.56688 21.8194L6.29032 20.8584L6.01377 19.8974C5.2635 20.1133 4.4308 19.961 3.71061 19.6919C3.36178 19.5615 3.06728 19.4141 2.86128 19.2998C2.75892 19.243 2.68014 19.1954 2.62933 19.1636C2.60397 19.1477 2.58572 19.1358 2.57512 19.1289C2.56983 19.1254 2.56647 19.1231 2.5651 19.1222C2.56441 19.1217 2.56423 19.1216 2.56455 19.1218C2.56471 19.1219 2.565 19.1221 2.56542 19.1224C2.56563 19.1226 2.56587 19.1227 2.56614 19.1229C2.56628 19.123 2.56651 19.1232 2.56658 19.1232C2.56681 19.1234 2.56706 19.1236 2 19.9472Z" fill="currentColor" />
</svg>