<svg xmlns="http://www.w3.org/2000/svg" width="24" height="24" viewBox="0 0 24 24" fill="none">
<path d="M12 21.6753V17.0001" stroke="currentColor" stroke-width="2" stroke-linecap="round" stroke-linejoin="round" />
<path d="M9 19L7 18" stroke="currentColor" stroke-width="2" stroke-linecap="round" stroke-linejoin="round" />
<path d="M16.1699 2C17.9152 2.00002 19.3301 3.4149 19.3301 5.16016C19.33 6.90537 17.9151 8.32029 16.1699 8.32031C15.7961 8.32031 15.4011 8.36189 15.0547 8.40039C14.6883 8.44111 14.3679 8.47899 14.0635 8.49316C13.3866 8.52465 13.2059 8.40631 13.1602 8.35449C13.158 8.3512 13.1022 8.27428 13.0518 8.04102C13.0027 7.8142 12.9756 7.52362 12.9668 7.18262C12.9581 6.84564 12.9676 6.49171 12.9805 6.1416C12.9928 5.80651 13.0098 5.44809 13.0098 5.16016C13.0098 3.41489 14.4247 2 16.1699 2Z" stroke="currentColor" stroke-width="2" stroke-linejoin="round" stroke-linecap="round" />
<path d="M19.4619 11.8398C19.4619 13.5851 18.047 15 16.3018 15C14.5565 15 13.1416 13.5851 13.1416 11.8398C13.1416 11.466 13.1 11.071 13.0615 10.7246C13.0208 10.3583 12.9829 10.0378 12.9687 9.7334C12.9373 9.05655 13.0556 8.87578 13.1074 8.83008C13.1107 8.82789 13.1876 8.77214 13.4209 8.72168C13.6477 8.67264 13.9383 8.64555 14.2793 8.63672C14.6163 8.628 14.9702 8.63751 15.3203 8.65039C15.6554 8.66272 16.0138 8.67968 16.3018 8.67969C18.047 8.67969 19.4619 10.0946 19.4619 11.8398Z" stroke="currentColor" stroke-width="2" stroke-linejoin="round" stroke-linecap="round" />
<path d="M8.5166 2C6.77135 2.00002 5.35645 3.4149 5.35645 5.16016C5.35649 6.90537 6.77138 8.32029 8.5166 8.32031C8.89044 8.32031 9.28545 8.36189 9.63184 8.40039C9.99818 8.44111 10.3186 8.47899 10.623 8.49316C11.2999 8.52465 11.4807 8.40631 11.5264 8.35449C11.5286 8.3512 11.5843 8.27428 11.6348 8.04102C11.6838 7.8142 11.7109 7.52362 11.7197 7.18262C11.7284 6.84564 11.7189 6.49171 11.7061 6.1416C11.6937 5.80651 11.6768 5.44809 11.6768 5.16016C11.6768 3.41489 10.2619 2 8.5166 2Z" stroke="currentColor" stroke-width="2" stroke-linejoin="round" stroke-linecap="round" />
<path d="M5.22461 11.8398C5.22463 13.5851 6.63951 15 8.38477 15C10.13 15 11.5449 13.5851 11.5449 11.8398C11.5449 11.466 11.5865 11.071 11.625 10.7246C11.6657 10.3583 11.7036 10.0378 11.7178 9.7334C11.7493 9.05655 11.6309 8.87578 11.5791 8.83008C11.5758 8.82789 11.4989 8.77214 11.2656 8.72168C11.0388 8.67264 10.7482 8.64555 10.4072 8.63672C10.0703 8.628 9.71632 8.63751 9.36621 8.65039C9.03112 8.66272 8.6727 8.67968 8.38477 8.67969C6.6395 8.67969 5.22461 10.0946 5.22461 11.8398Z" stroke="currentColor" stroke-width="2" stroke-linejoin="round" stroke-linecap="round" />
</svg>