<svg xmlns="http://www.w3.org/2000/svg" width="24" height="24" viewBox="0 0 24 24" fill="none">
<path d="M3.55718 5.98186C3.1329 5.6283 2.50234 5.68562 2.14877 6.1099C1.79521 6.53417 1.85253 7.16474 2.27681 7.5183L2.91699 6.75008L3.55718 5.98186ZM3.55718 17.4819C3.1329 17.1283 2.50234 17.1856 2.14877 17.6099C1.79521 18.0342 1.85253 18.6647 2.27681 19.0183L2.91699 18.2501L3.55718 17.4819ZM3.55718 11.7319C3.1329 11.3783 2.50234 11.4356 2.14877 11.8599C1.79521 12.2842 1.85253 12.9147 2.27681 13.2683L2.91699 12.5001L3.55718 11.7319ZM21.4435 7.5183C21.8678 7.87187 22.4983 7.81454 22.8519 7.39027C23.2054 6.96599 23.1481 6.33542 22.7238 5.98186L22.0837 6.75008L21.4435 7.5183ZM21.4435 19.0183C21.8678 19.3719 22.4983 19.3145 22.8519 18.8903C23.2054 18.466 23.1481 17.8354 22.7238 17.4819L22.0837 18.2501L21.4435 19.0183ZM21.4435 13.2683C21.8678 13.6219 22.4983 13.5645 22.8519 13.1403C23.2054 12.716 23.1481 12.0854 22.7238 11.7319L22.0837 12.5001L21.4435 13.2683ZM2.91699 6.75008L2.27681 7.5183C2.55492 7.75007 2.93044 8.06844 3.42779 8.30909C3.9454 8.55955 4.55112 8.70841 5.31283 8.70841V7.70841V6.70841C4.8287 6.70841 4.524 6.61769 4.29891 6.50878C4.05354 6.39005 3.85406 6.22926 3.55718 5.98186L2.91699 6.75008ZM5.31283 7.70841V8.70841C6.0569 8.70841 6.65453 8.55696 7.16808 8.31046C7.66033 8.07418 8.04389 7.76252 8.33335 7.53095C8.64285 7.28335 8.85825 7.11585 9.1147 6.99275C9.34984 6.87988 9.65065 6.79175 10.1045 6.79175V5.79175V4.79175C9.36042 4.79175 8.76279 4.9432 8.24924 5.1897C7.75699 5.42598 7.37342 5.73765 7.08396 5.96921C6.77446 6.21681 6.55907 6.38432 6.30262 6.50741C6.06748 6.62028 5.76667 6.70841 5.31283 6.70841V7.70841ZM10.1045 5.79175V6.79175C10.5886 6.79175 10.8933 6.88247 11.1184 6.99139C11.3638 7.11011 11.5633 7.2709 11.8601 7.5183L12.5003 6.75008L13.1405 5.98186C12.8624 5.7501 12.4869 5.43172 11.9895 5.19107C11.4719 4.94061 10.8662 4.79175 10.1045 4.79175V5.79175ZM2.91699 18.2501L2.27681 19.0183C2.55492 19.2501 2.93044 19.5684 3.42779 19.8091C3.9454 20.0596 4.55112 20.2084 5.31283 20.2084V19.2084V18.2084C4.8287 18.2084 4.524 18.1177 4.29891 18.0088C4.05354 17.8901 3.85406 17.7293 3.55718 17.4819L2.91699 18.2501ZM5.31283 19.2084V20.2084C6.0569 20.2084 6.65453 20.057 7.16808 19.8105C7.66033 19.5742 8.04389 19.2625 8.33335 19.031C8.64285 18.7834 8.85825 18.6158 9.1147 18.4928C9.34984 18.3799 9.65065 18.2917 10.1045 18.2917V17.2917V16.2917C9.36042 16.2917 8.76279 16.4432 8.24924 16.6897C7.75699 16.926 7.37342 17.2376 7.08396 17.4692C6.77446 17.7168 6.55907 17.8843 6.30262 18.0074C6.06748 18.1203 5.76667 18.2084 5.31283 18.2084V19.2084ZM10.1045 17.2917V18.2917C10.5886 18.2917 10.8933 18.3825 11.1184 18.4914C11.3638 18.6101 11.5633 18.7709 11.8601 19.0183L12.5003 18.2501L13.1405 17.4819C12.8624 17.2501 12.4869 16.9317 11.9895 16.6911C11.4719 16.4406 10.8662 16.2917 10.1045 16.2917V17.2917ZM2.91699 12.5001L2.27681 13.2683C2.55492 13.5001 2.93044 13.8184 3.42779 14.0591C3.9454 14.3096 4.55112 14.4584 5.31283 14.4584V13.4584V12.4584C4.8287 12.4584 4.524 12.3677 4.29891 12.2588C4.05354 12.1401 3.85406 11.9793 3.55718 11.7319L2.91699 12.5001ZM5.31283 13.4584V14.4584C6.0569 14.4584 6.65453 14.307 7.16808 14.0605C7.66033 13.8242 8.04389 13.5125 8.33335 13.281C8.64285 13.0334 8.85825 12.8658 9.1147 12.7428C9.34984 12.6299 9.65065 12.5417 10.1045 12.5417V11.5417V10.5417C9.36042 10.5417 8.76279 10.6932 8.24924 10.9397C7.75699 11.176 7.37342 11.4876 7.08396 11.7192C6.77446 11.9668 6.55907 12.1343 6.30262 12.2574C6.06748 12.3703 5.76667 12.4584 5.31283 12.4584V13.4584ZM10.1045 11.5417V12.5417C10.5886 12.5417 10.8933 12.6325 11.1184 12.7414C11.3638 12.8601 11.5633 13.0209 11.8601 13.2683L12.5003 12.5001L13.1405 11.7319C12.8624 11.5001 12.4869 11.1817 11.9895 10.9411C11.4719 10.6906 10.8662 10.5417 10.1045 10.5417V11.5417ZM12.5003 6.75008L11.8601 7.5183C12.1383 7.75007 12.5138 8.06844 13.0111 8.30909C13.5287 8.55955 14.1345 8.70841 14.8962 8.70841V7.70841V6.70841C14.412 6.70841 14.1073 6.61769 13.8822 6.50878C13.6369 6.39005 13.4374 6.22926 13.1405 5.98186L12.5003 6.75008ZM14.8962 7.70841V8.70841C15.6402 8.70841 16.2379 8.55696 16.7514 8.31046C17.2437 8.07418 17.6272 7.76252 17.9167 7.53095C18.2262 7.28335 18.4416 7.11585 18.698 6.99275C18.9332 6.87988 19.234 6.79175 19.6878 6.79175V5.79175V4.79175C18.9437 4.79175 18.3461 4.9432 17.8326 5.1897C17.3403 5.42598 16.9568 5.73765 16.6673 5.96921C16.3578 6.21681 16.1424 6.38432 15.886 6.50741C15.6508 6.62028 15.35 6.70841 14.8962 6.70841V7.70841ZM19.6878 5.79175V6.79175C20.172 6.79175 20.4766 6.88247 20.7017 6.99139C20.9471 7.11011 21.1466 7.2709 21.4435 7.5183L22.0837 6.75008L22.7238 5.98186C22.4457 5.7501 22.0702 5.43172 21.5729 5.19107C21.0553 4.94061 20.4495 4.79175 19.6878 4.79175V5.79175ZM12.5003 18.2501L11.8601 19.0183C12.1383 19.2501 12.5138 19.5684 13.0111 19.8091C13.5287 20.0596 14.1345 20.2084 14.8962 20.2084V19.2084V18.2084C14.412 18.2084 14.1073 18.1177 13.8822 18.0088C13.6369 17.8901 13.4374 17.7293 13.1405 17.4819L12.5003 18.2501ZM14.8962 19.2084V20.2084C15.6402 20.2084 16.2379 20.057 16.7514 19.8105C17.2437 19.5742 17.6272 19.2625 17.9167 19.031C18.2262 18.7834 18.4416 18.6158 18.698 18.4928C18.9332 18.3799 19.234 18.2917 19.6878 18.2917V17.2917V16.2917C18.9437 16.2917 18.3461 16.4432 17.8326 16.6897C17.3403 16.926 16.9568 17.2376 16.6673 17.4692C16.3578 17.7168 16.1424 17.8843 15.886 18.0074C15.6508 18.1203 15.35 18.2084 14.8962 18.2084V19.2084ZM19.6878 17.2917V18.2917C20.172 18.2917 20.4766 18.3825 20.7017 18.4914C20.9471 18.6101 21.1466 18.7709 21.4435 19.0183L22.0837 18.2501L22.7238 17.4819C22.4457 17.2501 22.0702 16.9317 21.5729 16.6911C21.0553 16.4406 20.4495 16.2917 19.6878 16.2917V17.2917ZM12.5003 12.5001L11.8601 13.2683C12.1383 13.5001 12.5138 13.8184 13.0111 14.0591C13.5287 14.3096 14.1345 14.4584 14.8962 14.4584V13.4584V12.4584C14.412 12.4584 14.1073 12.3677 13.8822 12.2588C13.6369 12.1401 13.4374 11.9793 13.1405 11.7319L12.5003 12.5001ZM14.8962 13.4584V14.4584C15.6402 14.4584 16.2379 14.307 16.7514 14.0605C17.2437 13.8242 17.6272 13.5125 17.9167 13.281C18.2262 13.0334 18.4416 12.8658 18.698 12.7428C18.9332 12.6299 19.234 12.5417 19.6878 12.5417V11.5417V10.5417C18.9437 10.5417 18.3461 10.6932 17.8326 10.9397C17.3403 11.176 16.9568 11.4876 16.6673 11.7192C16.3578 11.9668 16.1424 12.1343 15.886 12.2574C15.6508 12.3703 15.35 12.4584 14.8962 12.4584V13.4584ZM19.6878 11.5417V12.5417C20.172 12.5417 20.4766 12.6325 20.7017 12.7414C20.9471 12.8601 21.1466 13.0209 21.4435 13.2683L22.0837 12.5001L22.7238 11.7319C22.4457 11.5001 22.0702 11.1817 21.5729 10.9411C21.0553 10.6906 20.4495 10.5417 19.6878 10.5417V11.5417Z" fill="currentColor" />
</svg>