<svg xmlns="http://www.w3.org/2000/svg" width="24" height="24" viewBox="0 0 24 24" fill="none">
<g clip-path="url(#clip0_124_128)">
<path d="M19.8889 21.8891C19.8889 21.8891 18.8748 21.4891 18.1852 21.2946C13.8235 20.0639 10.621 23.7143 6.25935 22.4836C5.56971 22.2891 4.55566 21.8891 4.55566 21.8891M19.8889 16.7781C19.8889 16.7781 18.8748 16.3781 18.1852 16.1835C13.8235 14.9529 10.621 18.6032 6.25935 17.3726C5.56971 17.178 4.55566 16.7781 4.55566 16.7781M19.8889 11.667C19.8889 11.667 18.8748 11.2671 18.1852 11.0725C13.8235 9.84187 10.621 13.4922 6.25935 12.2616C5.56971 12.067 4.55566 11.667 4.55566 11.667" stroke="currentColor" stroke-width="2" stroke-linecap="round" stroke-linejoin="round" />
<path d="M15.4904 10C15.8749 8.62996 16.4134 5.57063 15.4904 4.2937C14.3366 2.69753 13.3817 1.5403 10 2.17877" stroke="currentColor" stroke-width="2" stroke-linecap="round" stroke-linejoin="round" />
<path d="M16 5C16 3.43623 16.9297 1.17005 20 2.30827" stroke="currentColor" stroke-width="2" stroke-linecap="round" stroke-linejoin="round" />
<path d="M16.1244 4.41279C17.1402 3.67637 19.0483 3.2105 19.7486 5.73238" stroke="currentColor" stroke-width="2" stroke-linecap="round" stroke-linejoin="round" />
<path d="M16.0287 4.94785C15.3515 3.93252 13.6086 2.96903 11.5868 5.38528" stroke="currentColor" stroke-width="2" stroke-linecap="round" stroke-linejoin="round" />
<path d="M9.45312 9.34444C8.25725 9.20254 5.78302 8.93765 5.45312 9.01333V11" stroke="currentColor" stroke-width="2" stroke-linecap="round" stroke-linejoin="round" />
<path d="M9.74476 11.2632C9.74476 10.9866 9.42425 8.39899 12.7363 7.26318" stroke="currentColor" stroke-width="2" stroke-linecap="round" stroke-linejoin="round" />
</g>
<defs>
<clipPath id="clip0_124_128">
<rect width="24" height="24" fill="white" />
</clipPath>
</defs>
</svg>